# xmcd
#
# Track frame offsets:
#	150
#	14761
#	29821
#	45761
#	59163
#	75074
#	91337
#	104388
#	118923
#	131951
#	145352
#	159470
#
# Disc length: 2336 seconds
#
# Revision: 1
# Processed by: cddbd v1.5.1PL2 Copyright (c) Steve Scherf et al.
# Submitted via: audiograbber 1.83.01
#
DISCID=a6091e0c
DTITLE=Frank Faber - Das große Harz Album
DYEAR=1900
DGENRE=
TTITLE0=Meine Wiege stand am Wurmberg
TTITLE1=Im Harz wird wieder Holz gehackt
TTITLE2=Ich hab' es so gerne (Dich zu lieben)
TTITLE3=Das Märchen vom Harz
TTITLE4=Der Köning vom Harz
TTITLE5=Köhlerliesel
TTITLE6=Der Allergrößte im ganzen Norden (Das Lied vom Brocken)
TTITLE7=Berge in Flammen
TTITLE8=Die alte Fuhrmannsschänke
TTITLE9=Eine Weise aus uralten Zeiten
TTITLE10=Der Herrgott dort oben
TTITLE11=Der Köning vom Harz (Karaoke-Mix)
EXTD=
EXTT0=
EXTT1=
EXTT2=
EXTT3=
EXTT4=
EXTT5=
EXTT6=
EXTT7=
EXTT8=
EXTT9=
EXTT10=
EXTT11=
PLAYORDER=
